<svg id="Camada_2" data-name="Camada 2" xmlns="http://www.w3.org/2000/svg" viewBox="0 0 2589.48 1984.48">
    <defs>
        <style>.cls-1,.cls-3{fill:none;}.cls-1,.cls-2{stroke:#211915;stroke-linecap:round;stroke-width:3px;}.cls-1,.cls-2,.cls-3{stroke-miterlimit:10;}.cls-2{fill:#edeef0;}.cls-3{stroke:#000;stroke-width:4px;}</style>
    </defs>
    <title>Ativo 1</title>
    <line class="cls-1" x1="1092.41" y1="709.41" x2="1310.83" y2="709.41" />
    <line class="cls-1" x1="1229.41" y1="797.31" x2="1092.41" y2="709.41" />
    <line class="cls-1" x1="1097.98" y1="712.98" x2="2067.95" y2="815.35" />
    <circle class="cls-2" cx="1242.91" cy="877.65" r="5.57" />
    <circle class="cls-2" cx="1242.91" cy="917.58" r="5.57" />
    <circle class="cls-2" cx="1171.41" cy="872.07" r="5.57" />
    <circle class="cls-2" cx="1316.41" cy="917.58" r="5.57" />
    <circle class="cls-2" cx="1316.41" cy="866.5" r="5.57" />
    <circle class="cls-2" cx="1316.41" cy="1023.59" r="5.57" />
    <circle class="cls-2" cx="1316.41" cy="1129.61" r="5.57" />
    <circle class="cls-2" cx="1316.41" cy="1244.41" r="5.57" />
    <circle class="cls-2" cx="1316.41" cy="1317.41" r="5.57" />
    <circle class="cls-2" cx="1215.41" cy="1252.91" r="5.57" />
    <circle class="cls-2" cx="1150.91" cy="1188.91" r="5.57" />
    <circle class="cls-2" cx="1068.91" cy="1105.91" r="5.57" />
    <circle class="cls-2" cx="1095.91" cy="1077.41" r="5.57" />
    <circle class="cls-2" cx="979.41" cy="1127.41" r="5.57" />
    <circle class="cls-2" cx="903.91" cy="1127.41" r="5.57" />
    <circle class="cls-2" cx="808.41" cy="1127.41" r="5.57" />
    <circle class="cls-2" cx="570.41" cy="1127.41" r="5.57" />
    <circle class="cls-2" cx="808.41" cy="1176.41" r="5.57" />
    <circle class="cls-2" cx="808.41" cy="1015.41" r="5.57" />
    <circle class="cls-2" cx="808.41" cy="957.41" r="5.57" />
    <circle class="cls-2" cx="766.41" cy="912.41" r="5.57" />
    <circle class="cls-2" cx="894.91" cy="931.41" r="5.57" />
    <circle class="cls-2" cx="944.91" cy="982.41" r="5.57" />
    <circle class="cls-2" cx="993.41" cy="1031.26" r="5.57" />
    <circle class="cls-2" cx="808.41" cy="1251.41" r="5.57" />
    <circle class="cls-2" cx="808.41" cy="1322.41" r="5.57" />
    <circle class="cls-2" cx="808.41" cy="1398.91" r="5.57" />
    <circle class="cls-2" cx="808.41" cy="1482.41" r="5.57" />
    <circle class="cls-2" cx="808.41" cy="1570.41" r="5.57" />
    <circle class="cls-2" cx="808.41" cy="1668.91" r="5.57" />
    <circle class="cls-2" cx="859.91" cy="1668.91" r="5.57" />
    <circle class="cls-2" cx="927.41" cy="1668.91" r="5.57" />
    <circle class="cls-2" cx="808.41" cy="1719.41" r="5.57" />
    <circle class="cls-2" cx="808.41" cy="1796.41" r="5.57" />
    <circle class="cls-2" cx="808.41" cy="1757.91" r="5.57" />
    <circle class="cls-2" cx="808.41" cy="1834.91" r="5.57" />
    <circle class="cls-2" cx="808.41" cy="1873.41" r="5.57" />
    <circle class="cls-2" cx="702.41" cy="1652.91" r="5.57" />
    <circle class="cls-2" cx="613.41" cy="1652.91" r="5.57" />
    <circle class="cls-2" cx="528.91" cy="1652.91" r="5.57" />
    <circle class="cls-2" cx="444.41" cy="1652.91" r="5.57" />
    <circle class="cls-2" cx="1316.41" cy="1827.41" r="5.57" />
    <circle class="cls-2" cx="1316.41" cy="1738.41" r="5.57" />
    <circle class="cls-2" cx="1316.41" cy="1682.07" r="5.57" />
    <circle class="cls-2" cx="1316.41" cy="1640.07" r="5.57" />
    <circle class="cls-2" cx="1316.41" cy="1599.41" r="5.57" />
    <circle class="cls-2" cx="1316.41" cy="1558.74" r="5.57" />
    <circle class="cls-2" cx="1316.41" cy="1473.74" r="5.57" />
    <circle class="cls-2" cx="1316.41" cy="1516.24" r="5.57" />
    <circle class="cls-2" cx="1316.41" cy="1353.07" r="5.57" />
    <circle class="cls-2" cx="1463.07" cy="1416.55" r="5.57" />
    <circle class="cls-2" cx="1521.74" cy="1416.55" r="5.57" />
    <circle class="cls-2" cx="1591.55" cy="1416.55" r="5.57" />
    <circle class="cls-2" cx="1700.41" cy="1320.07" r="5.57" />
    <line class="cls-1" x1="1316.41" y1="703.83" x2="1316.41" y2="660.31" />
    <line class="cls-1" x1="1316.41" y1="649.17" x2="1316.41" y2="616.12" />
    <line class="cls-1" x1="1316.41" y1="574.31" x2="1316.41" y2="604.98" />
    <line class="cls-1" x1="1316.41" y1="530.31" x2="1316.41" y2="563.17" />
    <line class="cls-1" x1="1316.41" y1="488.31" x2="1316.41" y2="519.17" />
    <line class="cls-1" x1="1316.41" y1="445.65" x2="1316.41" y2="477.17" />
    <line class="cls-1" x1="1316.41" y1="403.65" x2="1316.41" y2="434.5" />
    <line class="cls-1" x1="1316.41" y1="362.31" x2="1316.41" y2="392.5" />
    <line class="cls-1" x1="1555.07" y1="855.35" x2="1555.07" y2="736.41" />
    <line class="cls-1" x1="1684.17" y1="730.83" x2="1560.65" y2="730.83" />
    <line class="cls-1" x1="1560.65" y1="860.93" x2="1634.83" y2="860.93" />
    <line class="cls-1" x1="1687.14" y1="852.22" x2="1689.74" y2="736.41" />
    <line class="cls-1" x1="1645.98" y1="860.93" x2="1681.5" y2="860.93" />
    <line class="cls-1" x1="1734.83" y1="860.93" x2="1692.65" y2="860.93" />
    <line class="cls-1" x1="1695.31" y1="730.83" x2="1771.69" y2="689.31" />
    <line class="cls-1" x1="1807.05" y1="654.74" x2="1782.83" y2="678.17" />
    <line class="cls-1" x1="1842.17" y1="625.98" x2="1817.31" y2="646.17" />
    <line class="cls-1" x1="1908.83" y1="620.41" x2="1853.31" y2="620.41" />
    <line class="cls-1" x1="1976.17" y1="620.41" x2="1919.98" y2="620.41" />
    <line class="cls-1" x1="2042.83" y1="620.41" x2="1987.31" y2="620.41" />
    <line class="cls-1" x1="1745.98" y1="860.93" x2="1791.5" y2="860.93" />
    <line class="cls-1" x1="1847.74" y1="860.93" x2="1802.65" y2="860.93" />
    <line class="cls-1" x1="1903.26" y1="860.93" x2="1858.88" y2="860.93" />
    <line class="cls-1" x1="1958.83" y1="860.93" x2="1914.41" y2="860.93" />
    <line class="cls-1" x1="2015.5" y1="860.93" x2="1969.98" y2="860.93" />
    <line class="cls-1" x1="2062.37" y1="860.93" x2="2026.65" y2="860.93" />
    <line class="cls-1" x1="2067.95" y1="820.92" x2="2067.95" y2="855.35" />
    <line class="cls-1" x1="2053.98" y1="620.41" x2="2110.17" y2="620.41" />
    <line class="cls-1" x1="2073.52" y1="815.35" x2="2107.5" y2="815.35" />
    <line class="cls-1" x1="2152.63" y1="815.35" x2="2118.65" y2="815.35" />
    <line class="cls-1" x1="2176.83" y1="620.41" x2="2121.31" y2="620.41" />
    <line class="cls-1" x1="2244.17" y1="620.41" x2="2187.98" y2="620.41" />
    <line class="cls-1" x1="2163.77" y1="815.35" x2="2196.03" y2="838.14" />
    <line class="cls-1" x1="2255.31" y1="830.44" x2="2205.98" y2="841.58" />
    <line class="cls-1" x1="2255.31" y1="620.41" x2="2305.5" y2="620.41" />
    <line class="cls-1" x1="2292.69" y1="800.51" x2="2266.46" y2="824.86" />
    <line class="cls-1" x1="2323.5" y1="768.83" x2="2302.65" y2="791.5" />
    <line class="cls-1" x1="2366.83" y1="726.65" x2="2334.65" y2="758.59" />
    <line class="cls-1" x1="2313.07" y1="622.92" x2="2366.83" y2="676.17" />
    <line class="cls-1" x1="2416.83" y1="721.07" x2="2377.98" y2="721.07" />
    <line class="cls-1" x1="2372.41" y1="687.31" x2="2372.41" y2="715.5" />
    <line class="cls-1" x1="2456.83" y1="721.07" x2="2427.98" y2="721.07" />
    <line class="cls-1" x1="2496.83" y1="721.07" x2="2467.98" y2="721.07" />
    <line class="cls-1" x1="2536.83" y1="721.07" x2="2507.98" y2="721.07" />
    <line class="cls-3" x1="361.65" y1="107.07" x2="480.83" y2="107.07" />
    <circle class="cls-2" cx="356.07" cy="107.07" r="5.57" />
    <circle class="cls-2" cx="486.41" cy="107.07" r="5.57" />
    <circle class="cls-2" cx="616.41" cy="107.07" r="5.57" />
    <circle class="cls-2" cx="709.07" cy="199.74" r="5.57" />
    <circle class="cls-2" cx="738.93" cy="168.74" r="5.57" />
    <circle class="cls-2" cx="805.41" cy="237.07" r="5.57" />
    <circle class="cls-2" cx="805.41" cy="281.41" r="5.57" />
    <circle class="cls-2" cx="805.41" cy="325.74" r="5.57" />
    <circle class="cls-2" cx="805.41" cy="370.07" r="5.57" />
    <circle class="cls-2" cx="805.41" cy="414.41" r="5.57" />
    <circle class="cls-2" cx="805.41" cy="458.74" r="5.57" />
    <circle class="cls-2" cx="805.41" cy="503.07" r="5.57" />
    <circle class="cls-2" cx="805.41" cy="548.74" r="5.57" />
    <circle class="cls-2" cx="805.41" cy="592.74" r="5.57" />
    <circle class="cls-2" cx="913.74" cy="709.41" r="5.57" />
    <circle class="cls-2" cx="1006.41" cy="710.74" r="5.57" />
    <circle class="cls-2" cx="1092.41" cy="709.41" r="5.57" />
    <circle class="cls-2" cx="1092.41" cy="754.41" r="5.57" />
    <circle class="cls-2" cx="1092.41" cy="791.74" r="5.57" />
    <circle class="cls-2" cx="1136.07" cy="837.41" r="5.57" />
    <circle class="cls-2" cx="1171.41" cy="872.07" r="5.57" />
    <circle class="cls-2" cx="958.41" cy="754.41" r="5.57" />
    <circle class="cls-2" cx="897.32" cy="754.41" r="5.57" />
    <circle class="cls-2" cx="749.32" cy="754.41" r="5.57" />
    <circle class="cls-2" cx="659.07" cy="791.74" r="5.57" />
    <circle class="cls-2" cx="7.07" cy="754.41" r="5.57" />
    <circle class="cls-2" cx="63.07" cy="754.41" r="5.57" />
    <circle class="cls-2" cx="127.07" cy="754.41" r="5.57" />
    <circle class="cls-2" cx="170.07" cy="791.74" r="5.57" />
    <circle class="cls-2" cx="208.07" cy="791.74" r="5.57" />
    <circle class="cls-2" cx="246.07" cy="791.74" r="5.57" />
    <circle class="cls-2" cx="284.07" cy="791.74" r="5.57" />
    <circle class="cls-2" cx="322.07" cy="791.74" r="5.57" />
    <circle class="cls-2" cx="360.07" cy="791.74" r="5.57" />
    <circle class="cls-2" cx="394.07" cy="791.74" r="5.57" />
    <circle class="cls-2" cx="436.07" cy="791.74" r="5.57" />
    <circle class="cls-2" cx="471.57" cy="791.74" r="5.57" />
    <circle class="cls-2" cx="512.07" cy="791.74" r="5.57" />
    <circle class="cls-2" cx="546.65" cy="791.74" r="5.57" />
    <circle class="cls-2" cx="585.57" cy="791.74" r="5.57" />
    <circle class="cls-2" cx="622.32" cy="791.74" r="5.57" />
    <circle class="cls-2" cx="1316.41" cy="709.41" r="5.57" />
    <circle class="cls-2" cx="2067.95" cy="815.35" r="5.57" />
    <circle class="cls-2" cx="1229.41" cy="797.31" r="5.57" />
    <circle class="cls-2" cx="1900.41" cy="1137.74" r="5.57" />
    <circle class="cls-2" cx="1997.07" cy="1137.74" r="5.57" />
    <circle class="cls-2" cx="1919.07" cy="1254.41" r="5.57" />
    <circle class="cls-2" cx="1971.74" cy="1308.93" r="5.57" />
    <circle class="cls-2" cx="2023.74" cy="1359.74" r="5.57" />
    <circle class="cls-2" cx="2151.74" cy="1487.74" r="5.57" />
    <circle class="cls-2" cx="2192.41" cy="1527.74" r="5.57" />
    <circle class="cls-2" cx="2232.41" cy="1567.74" r="5.57" />
    <circle class="cls-2" cx="2272.41" cy="1608.41" r="5.57" />
    <circle class="cls-2" cx="2329.07" cy="1664.41" r="5.57" />
    <circle class="cls-2" cx="2391.74" cy="1760.41" r="5.57" />
    <circle class="cls-2" cx="2089.74" cy="1425.07" r="5.57" />
    <circle class="cls-2" cx="1840.83" cy="1179.98" r="5.57" />
    <circle class="cls-2" cx="1783.26" cy="1118.41" r="5.57" />
    <circle class="cls-2" cx="1731.07" cy="1066.41" r="5.57" />
    <circle class="cls-2" cx="1434.41" cy="917.58" r="5.57" />
    <circle class="cls-2" cx="1555.07" cy="860.93" r="5.57" />
    <circle class="cls-2" cx="1640.41" cy="860.93" r="5.57" />
    <circle class="cls-2" cx="1555.07" cy="730.83" r="5.57" />
    <circle class="cls-2" cx="1689.74" cy="730.83" r="5.57" />
    <circle class="cls-2" cx="1687.07" cy="860.93" r="5.57" />
    <circle class="cls-2" cx="1740.41" cy="860.93" r="5.57" />
    <circle class="cls-2" cx="1777.26" cy="683.74" r="5.57" />
    <circle class="cls-2" cx="1811.74" cy="651.74" r="5.57" />
    <circle class="cls-2" cx="1847.74" cy="620.41" r="5.57" />
    <circle class="cls-2" cx="1914.41" cy="620.41" r="5.57" />
    <circle class="cls-2" cx="1797.07" cy="860.93" r="5.57" />
    <circle class="cls-2" cx="1853.31" cy="860.93" r="5.57" />
    <circle class="cls-2" cx="1908.83" cy="860.93" r="5.57" />
    <circle class="cls-2" cx="1964.41" cy="860.93" r="5.57" />
    <circle class="cls-2" cx="2021.07" cy="860.93" r="5.57" />
    <circle class="cls-2" cx="2067.95" cy="860.93" r="5.57" />
    <circle class="cls-2" cx="2113.07" cy="815.35" r="5.57" />
    <circle class="cls-2" cx="2158.2" cy="815.35" r="5.57" />
    <circle class="cls-2" cx="1981.74" cy="620.41" r="5.57" />
    <circle class="cls-2" cx="2048.41" cy="620.41" r="5.57" />
    <circle class="cls-2" cx="2115.74" cy="620.41" r="5.57" />
    <circle class="cls-2" cx="2182.41" cy="620.41" r="5.57" />
    <circle class="cls-2" cx="2249.74" cy="620.41" r="5.57" />
    <circle class="cls-2" cx="2200.41" cy="841.58" r="5.57" />
    <circle class="cls-2" cx="2260.88" cy="830.44" r="5.57" />
    <circle class="cls-2" cx="2297.07" cy="797.07" r="5.57" />
    <circle class="cls-2" cx="2311.07" cy="620.41" r="5.57" />
    <circle class="cls-2" cx="2329.07" cy="764.17" r="5.57" />
    <circle class="cls-2" cx="2372.41" cy="681.74" r="5.57" />
    <circle class="cls-2" cx="2372.41" cy="721.07" r="5.57" />
    <circle class="cls-2" cx="2422.41" cy="721.07" r="5.57" />
    <circle class="cls-2" cx="2462.41" cy="721.07" r="5.57" />
    <circle class="cls-2" cx="2502.41" cy="721.07" r="5.57" />
    <circle class="cls-2" cx="2542.41" cy="721.07" r="5.57" />
    <line class="cls-1" x1="491.98" y1="107.07" x2="610.83" y2="107.07" />
    <line class="cls-1" x1="705.13" y1="195.8" x2="620.35" y2="111.01" />
    <line class="cls-1" x1="735.06" y1="172.75" x2="712.94" y2="195.73" />
    <line class="cls-1" x1="801.52" y1="233.08" x2="742.81" y2="172.73" />
    <line class="cls-1" x1="805.41" y1="275.83" x2="805.41" y2="242.65" />
    <line class="cls-1" x1="805.41" y1="320.17" x2="805.41" y2="286.98" />
    <line class="cls-1" x1="805.41" y1="364.5" x2="805.41" y2="331.31" />
    <line class="cls-1" x1="805.41" y1="408.83" x2="805.41" y2="375.65" />
    <line class="cls-1" x1="805.41" y1="453.17" x2="805.41" y2="419.98" />
    <line class="cls-1" x1="805.41" y1="497.5" x2="805.41" y2="464.31" />
    <line class="cls-1" x1="805.41" y1="543.17" x2="805.41" y2="508.65" />
    <line class="cls-1" x1="805.41" y1="587.17" x2="805.41" y2="554.31" />
    <line class="cls-1" x1="908.17" y1="705.17" x2="808.42" y2="597.42" />
    <line class="cls-1" x1="919.31" y1="710.74" x2="1000.83" y2="710.74" />
    <line class="cls-1" x1="1092.41" y1="748.83" x2="1092.41" y2="714.98" />
    <line class="cls-1" x1="1092.41" y1="786.17" x2="1092.41" y2="759.98" />
    <line class="cls-1" x1="963.98" y1="754.41" x2="1086.83" y2="754.41" />
    <line class="cls-1" x1="952.83" y1="754.41" x2="902.9" y2="754.41" />
    <line class="cls-1" x1="891.75" y1="754.41" x2="754.9" y2="754.41" />
    <line class="cls-1" x1="743.75" y1="759.98" x2="664.65" y2="791.74" />
    <line class="cls-1" x1="653.5" y1="791.74" x2="627.9" y2="791.74" />
    <line class="cls-1" x1="591.15" y1="791.74" x2="616.75" y2="791.74" />
    <line class="cls-1" x1="552.22" y1="791.74" x2="580" y2="791.74" />
    <line class="cls-1" x1="517.65" y1="791.74" x2="541.07" y2="791.74" />
    <line class="cls-1" x1="477.15" y1="791.74" x2="506.5" y2="791.74" />
    <line class="cls-1" x1="441.65" y1="791.74" x2="466" y2="791.74" />
    <line class="cls-1" x1="399.65" y1="791.74" x2="430.5" y2="791.74" />
    <line class="cls-1" x1="365.65" y1="791.74" x2="388.5" y2="791.74" />
    <line class="cls-1" x1="327.65" y1="791.74" x2="354.5" y2="791.74" />
    <line class="cls-1" x1="289.65" y1="791.74" x2="316.5" y2="791.74" />
    <line class="cls-1" x1="251.65" y1="791.74" x2="278.5" y2="791.74" />
    <line class="cls-1" x1="213.65" y1="791.74" x2="240.5" y2="791.74" />
    <line class="cls-1" x1="175.65" y1="791.74" x2="202.5" y2="791.74" />
    <line class="cls-1" x1="132.65" y1="759.98" x2="164.5" y2="786.17" />
    <line class="cls-1" x1="68.65" y1="754.41" x2="121.5" y2="754.41" />
    <line class="cls-1" x1="12.65" y1="754.41" x2="57.5" y2="754.41" />
    <line class="cls-1" x1="664.65" y1="797.31" x2="760.83" y2="906.83" />
    <line class="cls-1" x1="622.32" y1="797.31" x2="760.83" y2="912.41" />
    <line class="cls-1" x1="771.98" y1="917.98" x2="802.83" y2="951.83" />
    <line class="cls-1" x1="808.41" y1="962.98" x2="808.41" y2="1009.83" />
    <line class="cls-1" x1="808.41" y1="1121.83" x2="808.41" y2="1020.98" />
    <line class="cls-1" x1="575.98" y1="1127.41" x2="802.83" y2="1127.41" />
    <line class="cls-1" x1="813.98" y1="1127.41" x2="898.33" y2="1127.41" />
    <line class="cls-1" x1="909.48" y1="1127.41" x2="973.83" y2="1127.41" />
    <line class="cls-1" x1="984.98" y1="1127.41" x2="1063.33" y2="1111.48" />
    <line class="cls-1" x1="1073.41" y1="1102.64" x2="1090.33" y2="1082.98" />
    <line class="cls-1" x1="1063.33" y1="1100.33" x2="998.98" y2="1036.83" />
    <line class="cls-1" x1="987.83" y1="1025.69" x2="950.48" y2="986.41" />
    <line class="cls-1" x1="941.66" y1="976.83" x2="903.91" y2="936.98" />
    <line class="cls-1" x1="808.41" y1="1170.83" x2="808.41" y2="1132.98" />
    <line class="cls-1" x1="808.41" y1="1245.83" x2="808.41" y2="1181.98" />
    <line class="cls-1" x1="808.41" y1="1316.83" x2="808.41" y2="1256.98" />
    <line class="cls-1" x1="808.41" y1="1393.33" x2="808.41" y2="1327.98" />
    <line class="cls-1" x1="808.41" y1="1473.74" x2="808.41" y2="1404.48" />
    <line class="cls-1" x1="808.41" y1="1564.83" x2="808.41" y2="1487.98" />
    <line class="cls-1" x1="808.41" y1="1663.33" x2="808.41" y2="1575.98" />
    <line class="cls-1" x1="854.33" y1="1668.91" x2="813.98" y2="1668.91" />
    <line class="cls-1" x1="921.83" y1="1668.91" x2="865.48" y2="1668.91" />
    <line class="cls-1" x1="707.98" y1="1652.91" x2="802.83" y2="1668.91" />
    <line class="cls-1" x1="618.98" y1="1652.91" x2="696.83" y2="1652.91" />
    <line class="cls-1" x1="534.48" y1="1652.91" x2="607.83" y2="1652.91" />
    <line class="cls-1" x1="449.98" y1="1652.91" x2="523.33" y2="1652.91" />
    <line class="cls-1" x1="808.41" y1="1713.83" x2="808.41" y2="1674.48" />
    <line class="cls-1" x1="808.41" y1="1752.33" x2="808.41" y2="1724.98" />
    <line class="cls-1" x1="808.41" y1="1790.83" x2="808.41" y2="1763.48" />
    <line class="cls-1" x1="808.41" y1="1829.33" x2="808.41" y2="1801.98" />
    <line class="cls-1" x1="808.41" y1="1867.83" x2="808.41" y2="1840.48" />
    <line class="cls-1" x1="1316.41" y1="1821.83" x2="1316.41" y2="1743.98" />
    <line class="cls-1" x1="1316.41" y1="1687.65" x2="1316.41" y2="1732.83" />
    <line class="cls-1" x1="1316.41" y1="1645.65" x2="1316.41" y2="1676.5" />
    <line class="cls-1" x1="1316.41" y1="1604.98" x2="1316.41" y2="1634.5" />
    <line class="cls-1" x1="1316.41" y1="1564.31" x2="1316.41" y2="1593.83" />
    <line class="cls-1" x1="1316.41" y1="1521.81" x2="1316.41" y2="1553.17" />
    <line class="cls-1" x1="1316.41" y1="1479.31" x2="1316.41" y2="1510.67" />
    <line class="cls-1" x1="1310.83" y1="1311.83" x2="1220.98" y2="1252.91" />
    <line class="cls-1" x1="1310.83" y1="1350.25" x2="1220.98" y2="1258.48" />
    <line class="cls-1" x1="1316.41" y1="1468.17" x2="1316.41" y2="1358.65" />
    <line class="cls-1" x1="1457.5" y1="1416.55" x2="1321.98" y2="1353.07" />
    <line class="cls-1" x1="1321.98" y1="1317.41" x2="1463.07" y2="1410.98" />
    <line class="cls-1" x1="1516.17" y1="1416.55" x2="1468.65" y2="1416.55" />
    <line class="cls-1" x1="1585.98" y1="1416.55" x2="1527.31" y2="1416.55" />
    <line class="cls-1" x1="1695.66" y1="1322.98" x2="1597.12" y2="1416.55" />
    <line class="cls-1" x1="1705.98" y1="1314.5" x2="1835.26" y2="1185.55" />
    <line class="cls-1" x1="1894.83" y1="1137.74" x2="1846.41" y2="1174.41" />
    <line class="cls-1" x1="1991.5" y1="1137.74" x2="1905.98" y2="1137.74" />
    <line class="cls-1" x1="1913.5" y1="1250.03" x2="1846.41" y2="1185.55" />
    <line class="cls-1" x1="1966.17" y1="1303.35" x2="1924.65" y2="1259.98" />
    <line class="cls-1" x1="2018.17" y1="1354.17" x2="1977.31" y2="1314.5" />
    <line class="cls-1" x1="2085.02" y1="1422.12" x2="2029.31" y2="1365.31" />
    <line class="cls-1" x1="2146.17" y1="1482.17" x2="2094.04" y2="1428.62" />
    <line class="cls-1" x1="2186.83" y1="1522.17" x2="2157.31" y2="1493.31" />
    <line class="cls-1" x1="2227.7" y1="1564.77" x2="2197.98" y2="1533.31" />
    <line class="cls-1" x1="2266.83" y1="1602.83" x2="2237.98" y2="1573.31" />
    <line class="cls-1" x1="2323.5" y1="1658.83" x2="2277.98" y2="1613.98" />
    <line class="cls-1" x1="2386.17" y1="1754.83" x2="2334.65" y2="1669.98" />
    <line class="cls-1" x1="1836.48" y1="1176.5" x2="1788.83" y2="1123.98" />
    <line class="cls-1" x1="1778.88" y1="1114.97" x2="1736.65" y2="1071.98" />
    <line class="cls-1" x1="1725.5" y1="1060.83" x2="1555.07" y2="866.5" />
    <line class="cls-1" x1="1439.98" y1="917.58" x2="1549.5" y2="860.93" />
    <line class="cls-1" x1="1428.83" y1="917.58" x2="1321.98" y2="917.58" />
    <line class="cls-1" x1="1310.83" y1="917.58" x2="1248.48" y2="917.58" />
    <line class="cls-1" x1="1092.41" y1="797.31" x2="1130.5" y2="831.83" />
    <line class="cls-1" x1="1167.57" y1="868.03" x2="1141.65" y2="842.98" />
    <line class="cls-1" x1="1237.33" y1="912.01" x2="1176.98" y2="877.65" />
    <line class="cls-1" x1="1242.91" y1="883.22" x2="1242.91" y2="912.01" />
    <line class="cls-1" x1="1234.98" y1="802.88" x2="1242.91" y2="872.07" />
    <line class="cls-1" x1="2062.37" y1="818.25" x2="1234.98" y2="797.31" />
    <line class="cls-1" x1="1313.03" y1="713.83" x2="1234.98" y2="791.74" />
    <line class="cls-1" x1="1316.41" y1="912.01" x2="1316.41" y2="872.07" />
    <line class="cls-1" x1="1316.41" y1="923.16" x2="1316.41" y2="1018.02" />
    <line class="cls-1" x1="1316.41" y1="1029.17" x2="1316.41" y2="1124.03" />
    <line class="cls-1" x1="1316.41" y1="1238.83" x2="1316.41" y2="1135.18" />
    <line class="cls-1" x1="1316.41" y1="1311.83" x2="1316.41" y2="1249.98" />
    <line class="cls-1" x1="1316.41" y1="1347.5" x2="1316.41" y2="1322.98" />
    <line class="cls-1" x1="1209.83" y1="1247.33" x2="1156.48" y2="1194.48" />
    <line class="cls-1" x1="1145.33" y1="1183.33" x2="1071.72" y2="1110.71" />
    <line class="cls-1" x1="1098.37" y1="1076.6" x2="1242.91" y2="923.16" />
    <line class="cls-1" x1="1316.41" y1="860.93" x2="1316.41" y2="714.98" />
    <circle class="cls-2" cx="1316.41" cy="654.74" r="5.57" />
    <circle class="cls-2" cx="1316.41" cy="610.55" r="5.57" />
    <circle class="cls-2" cx="1316.41" cy="568.74" r="5.57" />
    <circle class="cls-2" cx="1316.41" cy="524.74" r="5.57" />
    <circle class="cls-2" cx="1316.41" cy="482.74" r="5.57" />
    <circle class="cls-2" cx="1316.41" cy="440.07" r="5.57" />
    <circle class="cls-2" cx="1316.41" cy="398.07" r="5.57" />
    <circle class="cls-2" cx="1316.41" cy="356.74" r="5.57" />
    <circle class="cls-2" cx="2582.41" cy="721.07" r="5.57" />
    <line class="cls-1" x1="2547.98" y1="721.07" x2="2576.83" y2="721.07" />
    <line class="cls-1" x1="1011.98" y1="710.74" x2="1086.83" y2="709.41" />
    <circle class="cls-2" cx="1465.07" cy="1827.41" r="5.57" />
    <circle class="cls-2" cx="1616.41" cy="1827.41" r="5.57" />
    <circle class="cls-2" cx="1616.41" cy="1977.41" r="5.57" />
    <line class="cls-1" x1="1310.83" y1="1827.41" x2="813.98" y2="1482.41" />
    <line class="cls-1" x1="813.98" y1="1398.91" x2="1310.83" y2="1827.41" />
    <line class="cls-1" x1="1459.5" y1="1827.41" x2="1321.98" y2="1827.41" />
    <line class="cls-1" x1="1610.83" y1="1827.41" x2="1470.65" y2="1827.41" />
    <line class="cls-1" x1="1616.41" y1="1971.83" x2="1616.41" y2="1832.98" />
    <line class="cls-1" x1="2084.17" y1="1430.65" x2="1621.98" y2="1827.41" />
    <circle class="cls-2" cx="2203.55" cy="1311.74" r="5.57" />
    <circle class="cls-2" cx="2268.83" cy="1245.74" r="5.57" />
    <line class="cls-1" x1="2263.26" y1="1251.31" x2="2209.12" y2="1306.17" />
    <line class="cls-1" x1="2197.98" y1="1317.31" x2="2095.31" y2="1419.5" />
    <circle class="cls-2" cx="2173.74" cy="7.07" r="5.57" />
    <circle class="cls-2" cx="2115.41" cy="178.26" r="5.57" />
    <circle class="cls-2" cx="1469.74" cy="159.41" r="5.57" />
    <line class="cls-1" x1="1321.98" y1="351.17" x2="1464.17" y2="164.98" />
    <line class="cls-1" x1="1475.31" y1="159.41" x2="2109.83" y2="178.26" />
    <line class="cls-1" x1="2173.74" y1="12.65" x2="2120.98" y2="172.69" />
</svg>